<svg xmlns="http://www.w3.org/2000/svg" width="877.317" height="660" viewBox="0 0 877.317 660">
  <g id="home-background" transform="translate(-0.683)">
    <path id="Caminho_1" data-name="Caminho 1" d="M868.075,660H1.269C-9.706,512.2,136.012,419.063,215.18,368.462c10.285-6.573,19.446-12.429,27-17.593,33.088-22.637,57.624-72.068,83.719-124.641C373.97,129.372,427.337,21.854,549.226,51.591,656.389,77.8,817.447,189.332,878,356.181V633.3Q873.494,646.545,868.075,660Z" fill="rgba(255,255,255,0.4)" fill-rule="evenodd" opacity="0.5"/>
    <path id="Caminho_2" data-name="Caminho 2" d="M477,465c-125.921,0-228,10.3-228,23s102.079,23,228,23,228-10.3,228-23S602.921,465,477,465Z" fill="#e9e9e9"/>
    <path id="Caminho_3" data-name="Caminho 3" d="M683.38,398.817s-32.348,92.239-35.814,92.239-72.784,21.907-11.553-5.765c0,0,6.932-100.31,17.33-104.922S683.38,398.817,683.38,398.817Z" fill="#965450"/>
    <path id="Caminho_4" data-name="Caminho 4" d="M659.119,465.229c10.513-27.326,24.262-66.412,24.262-66.412s-19.641-23.059-30.038-18.448c-6.7,3-12.015,46.12-14.9,76.1C645.371,459.234,652.187,462.231,659.119,465.229Z" fill="#965450"/>
    <path id="Caminho_5" data-name="Caminho 5" d="M625.962,490.249s-2.657,6.111,22.759-.346l-1.155,3.459S575.938,510.2,625.962,490.249Z"/>
    <path id="Caminho_6" data-name="Caminho 6" d="M663.74,359.731s50.024,84.053,47.829,86.705-29.922,69.755-11.9,5.073c0,0-72.552-69.756-69.433-80.709C633.471,359.962,663.74,359.731,663.74,359.731Z" fill="#965450"/>
    <path id="Caminho_7" data-name="Caminho 7" d="M697.128,462.347s3,6,14.326-17.641l1.964,3.113C713.3,447.819,680.261,513.539,697.128,462.347Z"/>
    <path id="Caminho_8" data-name="Caminho 8" d="M692.854,409.771c-13.4-23.637-29.114-50.04-29.114-50.04s-30.269.231-33.5,11.069c-2.079,7.033,27.728,38.855,48.87,60.3C679.221,431.216,687.424,422.108,692.854,409.771Z" fill="#965450"/>
    <path id="Caminho_9" data-name="Caminho 9" d="M695.51,233.364s-30.616-34.013-48.523-12.683S601.353,312.343,605.4,341.168c2.427,16.949,18.716,35.051,31.771,47.157l-10.975,61.8s45.056,12.106,42.168,12.106c-1.733,0,44.479-123.945,49.1-163.147S695.51,233.364,695.51,233.364Z" fill="#222"/>
    <path id="Caminho_10" data-name="Caminho 10" d="M672.059,240.974c8.549-.116,17.907-1.269,26.109-4.612-1.617-1.96-2.657-3-2.657-3s-30.615-34.013-48.522-12.683a90.57,90.57,0,0,0-8.781,13.029C648.26,239.244,660.968,241.2,672.059,240.974Z" fill="#352c38" opacity="0.2"/>
    <path id="Caminho_11" data-name="Caminho 11" d="M626.193,257.461c-12.708,28.94-23.452,64.913-20.795,83.592,2.31,16.833,18.485,34.82,31.539,46.926,4.622-31.361,13.055-74.944,18.139-100.079C642.483,280.752,632.085,270.49,626.193,257.461Z" fill="#352c38" opacity="0.2"/>
    <path id="Caminho_12" data-name="Caminho 12" d="M607.131,165.337,588.646,201.08s-32.348-17.871-36.97-17.871-26.571.576-16.174,5.188c0,0-4.621,2.882.578,4.035,0,0-4.621,4.036,1.155,4.612l13.286-.576s26.572,24.213,39.858,27.671,34.659-41.507,34.659-41.507Z" fill="#965450"/>
    <path id="Caminho_13" data-name="Caminho 13" d="M610.135,190.934c2.888,1.038,5.892,2.076,8.9,3.113,3.7-6.456,6.007-11.53,6.007-11.53l-17.907-17.294-10.167,19.6A65.259,65.259,0,0,0,610.135,190.934Z" fill="#76413b"/>
    <path id="Caminho_14" data-name="Caminho 14" d="M630.236,148.043s-17.329-2.882-23.684,6.342S597.31,178.6,597.31,178.6L622.149,190.7Z" fill="#509beb"/>
    <path id="Caminho_15" data-name="Caminho 15" d="M620.648,180.673c-6.354-4.958-13.633-11.184-18.369-18.679a91.17,91.17,0,0,0-5.084,16.488l24.839,12.106,1.5-7.84A22.489,22.489,0,0,1,620.648,180.673Z" fill="#161826" opacity="0.1"/>
    <path id="Caminho_16" data-name="Caminho 16" d="M508.7,178.943a3.639,3.639,0,0,1-2.2,4.612l-13.632,4.958a3.651,3.651,0,0,1-4.622-2.191l-5.429-15.1a3.638,3.638,0,0,1,2.195-4.612l13.632-4.958a3.651,3.651,0,0,1,4.621,2.191Z" fill="#b1c5e8"/>
    <path id="Caminho_17" data-name="Caminho 17" d="M519.674,167.644l-42.746,15.335a14.407,14.407,0,0,0-8.664,18.447l13.17,36.55a14.452,14.452,0,0,0,18.485,8.647l42.746-15.334a14.409,14.409,0,0,0,8.665-18.448l-13.171-36.55A14.4,14.4,0,0,0,519.674,167.644Zm27.5,48.541a5.775,5.775,0,0,1-3.466,7.379l-18.37-50.732a5.792,5.792,0,0,1,7.394,3.459Z" fill="#ccdfff"/>
    <path id="Caminho_18" data-name="Caminho 18" d="M505.926,163.608a3.16,3.16,0,0,1-1.848,4.036l-19.409,7.033a3.17,3.17,0,0,1-4.044-1.845l-1.617-4.5a3.161,3.161,0,0,1,1.848-4.036l19.409-7.033a3.171,3.171,0,0,1,4.044,1.845Z" fill="#ccdfff"/>
    <path id="Caminho_19" data-name="Caminho 19" d="M533.191,185.515s7.279-2.536,8.55-1.038c1.155,1.384-6.123,3.459-5.777,3.575.231.115,7.856-1.614,8.549,0s-8.087,4.5-8.087,4.5,8.318-2.306,8.9-.576-8.665,4.266-8.665,4.266l-.462-3.805-.577-4.381Z" fill="#965450"/>
    <path id="Caminho_20" data-name="Caminho 20" d="M543.474,183.555s-5.661-3.8-5.661-5.073c-.116-1.384,15.019,4.958,15.019,4.958Z" fill="#965450"/>
    <path id="Caminho_21" data-name="Caminho 21" d="M655.075,145.161c-1.155,2.075,4.506-46.235,4.506-46.235l-26.225,17.641s2.31,30.9-.578,31.015c-1.155,0-5.661,1.73-10.629,3.574,1.156,5.765,3.466,7.033,5.43,12.568,14.673-.115,30.616-.461,39.627-13.836C662.007,148.159,656.577,142.278,655.075,145.161Z" fill="#76413b"/>
    <path id="Caminho_22" data-name="Caminho 22" d="M630.236,148.043l-1.155-4.035,28.883-6.342,1.155,6.918s34.659,11.53,39.28,37.472,2.311,42.661-2.888,51.308c0,0-40.436,5.765-57.765-2.882-14.8-7.385-28.362-73.353-28.362-73.353s1.019-4.785,2.368-5.627A25.877,25.877,0,0,1,630.236,148.043Z" fill="#509beb"/>
    <path id="Caminho_23" data-name="Caminho 23" d="M668.015,219.874c-13.864-.807-30.847-2.421-42.4-10.953a43.864,43.864,0,0,1-6.007-5.3c5.2,12.8,11.668,23.636,18.138,26.865,17.33,8.647,57.765,2.882,57.765,2.882,2.311-3.8,4.044-9.224,4.852-16.372C689.966,220.1,679.106,220.566,668.015,219.874Z" fill="#161826" opacity="0.1"/>
    <path id="Caminho_24" data-name="Caminho 24" d="M666.628,199.927l29.46-2.306s-7.509,51.884-16.174,69.756-48.522,88.2-32.926,49c0,0-20.217,30.555-2.888-.576,0,0-19.062,24.789-2.311-1.729,0,0-19.64,22.483,1.156-9.224,0,0-15.6,7.494,1.733-5.189l16.752-43.813Z" fill="#965450"/>
    <path id="Caminho_25" data-name="Caminho 25" d="M695.4,201.772c.463-2.652.694-4.266.694-4.266l-29.461,2.306-.231,3C675.986,202.81,685.691,202.349,695.4,201.772Z" fill="#76413b"/>
    <path id="Caminho_26" data-name="Caminho 26" d="M635.782,67.911s14.673-8.532,36.161,5.534c14.21,9.339,13.517,39.2-17.214,58.8C618.222,155.538,635.782,67.911,635.782,67.911Z"/>
    <path id="Caminho_27" data-name="Caminho 27" d="M656.116,83.822s-16.521-12.8-30.616-6.572c-17.791,8.071-15.943,26.864-16.29,42.891-.462,21.33,16.406,25.366,21.489,25.6C638.208,146.2,668.824,144.354,656.116,83.822Z" fill="#965450"/>
    <path id="Caminho_28" data-name="Caminho 28" d="M657.733,103.769s.693-3.229,6.239-.692c7.047,3.343,3.235,20.177-4.622,19.716C651.379,122.447,657.733,103.769,657.733,103.769Z" fill="#965450"/>
    <path id="Caminho_29" data-name="Caminho 29" d="M657.732,103.769s.925,11.529-1.733,11.645c-2.772.115-5.661-20.869,1.964-20.869C665.588,94.775,657.732,103.769,657.732,103.769Z"/>
    <path id="Caminho_30" data-name="Caminho 30" d="M657.733,103.769s-5.661-25.6-39.28-21.331a33.326,33.326,0,0,1,15.481-14.066c14.441-6.111,36.045,18.448,30.037,34.705C663.971,103.077,661.2,103.423,657.733,103.769Z" fill="#509beb"/>
    <path id="Caminho_31" data-name="Caminho 31" d="M671.943,80.132s-1.849-30.554,5.545-30.554-.578,25.712-.578,25.712,6.124-36.78,23.915-31.246S687.886,75.29,687.886,75.29s14.094-12.913,19.062-8.532c4.852,4.266-20.218,12.913-20.218,12.913s19.063-5.534,21.489,3.69C710.645,92.469,671.365,91.2,671.943,80.132Z"/>
    <path id="Caminho_32" data-name="Caminho 32" d="M610.134,97.889a1.782,1.782,0,0,1,.231-.692,5.339,5.339,0,0,1,1.04-1.614,8.575,8.575,0,0,1,2.195-1.729,5.622,5.622,0,0,1,.809-.346,2.147,2.147,0,0,1,.809-.231c.346,0,.577-.115.924-.115h.924a4.849,4.849,0,0,1,1.733.461,6.221,6.221,0,0,1,1.5.807,10.365,10.365,0,0,1,1.155,1.038,2.711,2.711,0,0,1,.693,1.038.87.87,0,0,1,.231.461c.116.115.116.346.231.461a2.921,2.921,0,0,1,.232.807,3.233,3.233,0,0,1,.115.692,3.725,3.725,0,0,0-.693-.23l-.693-.346a6.848,6.848,0,0,1-.925-.461c-.346-.115-.577-.346-.924-.461l-1.04-.346-1.039-.346c-.347,0-.693-.115-1.04-.115h-1.04c-.346,0-.693.115-1.04.115-.346.115-.693.115-1.039.231s-.694.115-1.04.231c-.693.231-1.271.346-1.618.461A1.377,1.377,0,0,1,610.134,97.889Z"/>
    <path id="Caminho_33" data-name="Caminho 33" d="M619.03,129.6s18.947.577,20.217.346C640.4,129.711,628.619,138.935,619.03,129.6Z" fill="#fff"/>
    <path id="Caminho_34" data-name="Caminho 34" d="M620.3,108.5a3.216,3.216,0,0,1-.116.692c-.115.461-.231,1.037-.462,1.844a4.8,4.8,0,0,1-.462,1.153,5.249,5.249,0,0,1-.809,1.153,3.842,3.842,0,0,1-1.271,1.038c-.115.115-.231.115-.462.231l-.346.115a2.262,2.262,0,0,1-.924.115,2.433,2.433,0,0,1-1.733-.576,3.14,3.14,0,0,1-1.04-1.384,6.458,6.458,0,0,1-.462-1.383,5.15,5.15,0,0,1-.116-1.269,8.149,8.149,0,0,1,.116-1.844,3.642,3.642,0,0,1,.231-.692,12.477,12.477,0,0,0,.346,2.536,6.151,6.151,0,0,0,.809,2.306,3.111,3.111,0,0,0,.809.923,1.869,1.869,0,0,0,1.04.346,1.036,1.036,0,0,0,.577-.116l.347-.115a.4.4,0,0,1,.231-.115,5.522,5.522,0,0,0,1.04-.692,6.363,6.363,0,0,0,.808-1.038,4.7,4.7,0,0,0,.578-1.038c.347-.691.578-1.268.809-1.614A2.589,2.589,0,0,0,620.3,108.5Z"/>
    <path id="Caminho_35" data-name="Caminho 35" d="M639.363,110a3.23,3.23,0,0,1-.115.691c-.116.462-.231,1.038-.462,1.845a4.8,4.8,0,0,1-.463,1.153,5.2,5.2,0,0,1-.808,1.153,3.852,3.852,0,0,1-1.271,1.038c-.116.115-.231.115-.462.231l-.347.115a2.26,2.26,0,0,1-.924.115,2.433,2.433,0,0,1-1.733-.576,3.148,3.148,0,0,1-1.04-1.384,6.509,6.509,0,0,1-.462-1.384,5.181,5.181,0,0,1-.115-1.268,8.232,8.232,0,0,1,.115-1.845,3.742,3.742,0,0,1,.231-.691,12.444,12.444,0,0,0,.347,2.536,6.116,6.116,0,0,0,.809,2.306,3.121,3.121,0,0,0,.808.923,1.87,1.87,0,0,0,1.04.345,1.047,1.047,0,0,0,.578-.115l.346-.115a.406.406,0,0,1,.231-.115,5.491,5.491,0,0,0,1.04-.692,6.319,6.319,0,0,0,.809-1.038,4.651,4.651,0,0,0,.577-1.038c.347-.691.578-1.268.809-1.614A2.549,2.549,0,0,0,639.363,110Z"/>
    <path id="Caminho_36" data-name="Caminho 36" d="M660.39,119.565a7.831,7.831,0,0,0,.808-1.269,6.458,6.458,0,0,0,.462-1.383v-.692a.406.406,0,0,0-.115-.231.248.248,0,0,0-.231-.23l-.231-.231-.231-.231a.426.426,0,0,0-.347-.115l-.346-.115-.232-.115v-.231a20.4,20.4,0,0,1-.577-3.69,4.93,4.93,0,0,1,0-1.844,5.843,5.843,0,0,1,.346-1.96,1.8,1.8,0,0,1,.694-.923,1.522,1.522,0,0,1,1.155-.346,2.773,2.773,0,0,1,1.04.231,2.329,2.329,0,0,1,.924.461c.231.231.578.461.693.692a2.876,2.876,0,0,1,.462.807A3.41,3.41,0,0,1,664.9,110a5.1,5.1,0,0,0-.577-1.73,3.1,3.1,0,0,0-.578-.692,2.443,2.443,0,0,0-.693-.461,1.675,1.675,0,0,0-.809-.23c-.231,0-.578-.116-.809-.116-.462,0-.693.346-.808.807a10.639,10.639,0,0,0-.231,3.344c.115,1.153.231,2.421.462,3.574l-.231-.345.346.23c.116.115.231.115.347.231l.346.23.347.346a.6.6,0,0,1,.231.461.692.692,0,0,1,.116.462,2.486,2.486,0,0,1,0,.922,3.811,3.811,0,0,1-.809,1.5A9.473,9.473,0,0,1,660.39,119.565Z" fill="#76413b"/>
    <path id="Caminho_37" data-name="Caminho 37" d="M622.034,124.407a7.141,7.141,0,0,1-1.5.115,4.175,4.175,0,0,1-1.271-.23,12.212,12.212,0,0,1-1.155-.461c-.231-.116-.347-.231-.578-.346s-.346-.231-.577-.346l-.694-.577.116-.461c1.155-3.344,2.31-6.572,3.466-9.8s2.426-6.572,3.7-9.8c-.809,3.344-1.733,6.8-2.542,10.147q-1.386,5.014-2.773,10.031l-.462-1.038c.231,0,.462.115.693.115a.88.88,0,0,1,.578.231,5.387,5.387,0,0,1,1.155.576,7.438,7.438,0,0,1,1.04.923A2.187,2.187,0,0,1,622.034,124.407Z" fill="#76413b"/>
    <path id="Caminho_38" data-name="Caminho 38" d="M628.85,96.5a1.987,1.987,0,0,1,.462-.692c.231-.231.347-.461.693-.807a8.185,8.185,0,0,1,1.04-.807,7.368,7.368,0,0,1,1.386-.807c.463-.231,1.04-.461,1.618-.692a9.943,9.943,0,0,1,1.964-.346h1.04l1.039.115a9.777,9.777,0,0,1,1.964.461c.578.231,1.156.577,1.733.807a7.209,7.209,0,0,1,1.387,1.038,4.712,4.712,0,0,1,1.04,1.153,6.358,6.358,0,0,1,.808,1.038,6.739,6.739,0,0,1,.462.922,6.922,6.922,0,0,1,.347.807,16.233,16.233,0,0,1-1.733-.807,3.467,3.467,0,0,0-1.155-.461,11.227,11.227,0,0,1-1.271-.576c-.462-.115-.924-.346-1.386-.461l-1.387-.346c-.462,0-.924-.231-1.5-.231l-.693-.115h-2.2a5.633,5.633,0,0,0-1.386.115c-.462,0-.925.115-1.387.115-.808.115-1.617.231-2.079.346A2,2,0,0,1,628.85,96.5Z"/>
    <path id="Caminho_39" data-name="Caminho 39" d="M612.907,490.825a7.626,7.626,0,0,1-15.25.231l-.346-24.443a7.625,7.625,0,0,1,15.249-.231Z"/>
    <path id="Caminho_40" data-name="Caminho 40" d="M506.5,492.1a7.626,7.626,0,0,1-15.25.23l-.346-24.443a7.626,7.626,0,0,1,15.25-.231Z"/>
    <path id="Caminho_41" data-name="Caminho 41" d="M604.358,473.415a17.141,17.141,0,0,1-16.983,17.295l-71.166.807a17.142,17.142,0,0,1-17.33-16.949L491.254,312.92a17.143,17.143,0,0,1,16.983-17.3l82.6-1.037a17.141,17.141,0,0,1,17.329,16.948Z" fill="#509beb"/>
    <path id="Caminho_42" data-name="Caminho 42" d="M607.708,327.793l.347-16.026a17.144,17.144,0,0,0-17.33-16.949l-82.6,1.038a17.14,17.14,0,0,0-16.982,17.3l.808,16.026Z" fill="#161826" opacity="0.1"/>
    <path id="Caminho_43" data-name="Caminho 43" d="M621.8,307.732a4.853,4.853,0,0,1-4.737,4.842l-134.939,1.614a4.853,4.853,0,0,1-4.852-4.727l-.231-17.064a4.853,4.853,0,0,1,4.737-4.843l134.938-1.614a4.854,4.854,0,0,1,4.853,4.727Z" fill="#509beb"/>
    <path id="Caminho_44" data-name="Caminho 44" d="M550.174,355.119l15.712-9.454-3.812,9.8Z" fill="#fff"/>
    <path id="Caminho_45" data-name="Caminho 45" d="M544.283,340.246s1.271,0,3.235,3,6.354,11.069,6.354,11.069l7.971-3.574,1.849-3.113s-3.466-6.918-6.239-7.379Z" fill="#fff"/>
    <path id="Caminho_46" data-name="Caminho 46" d="M539.892,342.321s2.426-2.652,4.39-1.268,5.43,7.149,5.43,7.149l-5.661,9.915-10.166-5.649Z" fill="#fff"/>
    <path id="Caminho_47" data-name="Caminho 47" d="M557.338,367.456l.808,18.217-6.816-7.955Z" fill="#fff"/>
    <path id="Caminho_48" data-name="Caminho 48" d="M573.281,369.3s-.578,1.153-4.16,1.5-12.823.346-12.823.346l-.694,8.762,1.849,3.113s7.74.346,9.473-1.96Z" fill="#fff"/>
    <path id="Caminho_49" data-name="Caminho 49" d="M573.4,364.458s1.271,3.344-.924,4.5c-2.08,1.038-8.9,1.268-8.9,1.268l-6.123-9.685,9.82-6.341Z" fill="#fff"/>
    <path id="Caminho_50" data-name="Caminho 50" d="M543.472,367.226,527.3,358.693l10.4-1.844Z" fill="#fff"/>
    <path id="Caminho_51" data-name="Caminho 51" d="M533.885,380.024s-.693-1.038.809-4.266,6.123-11.184,6.123-11.184l-7.163-4.958-3.582.115s-4.159,6.572-3.119,9.109Z" fill="#fff"/>
    <path id="Caminho_52" data-name="Caminho 52" d="M537.928,382.56s-3.581-.692-3.35-3c.116-2.421,3.35-8.3,3.35-8.3l11.438-.346.462,11.645Z" fill="#fff"/>
    <path id="Caminho_53" data-name="Caminho 53" d="M302.247,445.167s-2.541,40.7-4.736,41.508c-8.434,2.882-72.091,19.024-11.9-8.071l-1.617-29.632Z"/>
    <path id="Caminho_54" data-name="Caminho 54" d="M299.59,476.759c1.5-12.337,2.657-31.592,2.657-31.592l-18.253,3.8,1.5,26.4C290,476.644,295.2,476.759,299.59,476.759Z"/>
    <path id="Caminho_55" data-name="Caminho 55" d="M260.079,492.786c-1.848,4.5,31.424-4.036,37.432-6.111a2.465,2.465,0,0,0,.577-.923C290.579,487.828,267.82,493.016,260.079,492.786Z" fill="#fff"/>
    <path id="Caminho_56" data-name="Caminho 56" d="M341.181,442.977s3.351,40.7,5.661,41.392c8.549,2.767,72.437,17.641,11.669-8.3l1.039-29.631Z" fill="#051f38"/>
    <path id="Caminho_57" data-name="Caminho 57" d="M344.532,474.453c-1.733-12.221-3.351-31.476-3.351-31.476l18.369,3.459-.924,26.4C354.12,474.223,348.922,474.338,344.532,474.453Z" fill="#041523"/>
    <path id="Caminho_58" data-name="Caminho 58" d="M384.389,489.788c1.964,4.5-31.539-3.459-37.547-5.419-.231,0-.346-.346-.577-.923C353.774,485.522,376.649,490.249,384.389,489.788Z" fill="#fff"/>
    <path id="Caminho_59" data-name="Caminho 59" d="M352.387,223.218s16.636,134.092,13.286,242.588c0,0-19.871,5.534-25.07,1.5-4.506-25.712-3.928-75.751-10.629-112.878-6.354-35.05-8.895-63.76-8.895-63.76L319,288.361s-13.633,169.489-16.636,182.4c-17.214,4.035-22.644-.692-22.644-.692s-7.856-212.034-3-246.278C282.954,179.059,352.387,223.218,352.387,223.218Z" fill="#222"/>
    <path id="Caminho_60" data-name="Caminho 60" d="M355.39,251c-1.733-17.295-3.12-27.671-3.12-27.671s-69.317-44.16-75.672.576c-.577,4.151-.924,10.953-1.27,19.6C280.526,246.392,345.454,255.616,355.39,251Z" fill="#161826" opacity="0.1"/>
    <path id="Caminho_61" data-name="Caminho 61" d="M319.808,286.978c.808,9.108,4.967,38.51,10.166,67.449,6.7,37.242,6.123,87.166,10.629,112.878,5.2,4.035,25.07-1.5,25.07-1.5,1.964-66.758-3.466-143.2-8.087-192.087C346.611,280.636,332.631,283.98,319.808,286.978Z" fill="#161826" opacity="0.1"/>
    <path id="Caminho_62" data-name="Caminho 62" d="M325.7,105.959c.115-14.066,1.155-32.629,1.155-32.629l-27.727-7.61s.924,25.135,1.733,40.47c-12.593,4.266-26.919,12.337-26.919,12.337l52.335,13.259,18.6-17.986A147.926,147.926,0,0,0,325.7,105.959Z" fill="#ffb39f"/>
    <path id="Caminho_63" data-name="Caminho 63" d="M325.7,105.959c.115-14.066,1.155-32.629,1.155-32.629l-27.727-7.61s.924,25.135,1.733,40.47c-12.593,4.266-26.919,12.337-26.919,12.337l52.335,13.259L351,110.571S335.635,104.806,325.7,105.959Z" fill="#e09b8d"/>
    <path id="Caminho_64" data-name="Caminho 64" d="M296.7,39.086s7.278-23.521,26.456-19.831S345.109,47.964,347.535,64.8c2.426,16.949-3,32.168-18.023,34.013C316.457,100.425,293.7,97.888,296.7,39.086Z" fill="#ffb39f"/>
    <path id="Caminho_65" data-name="Caminho 65" d="M297.626,58.8s-1.155-3.113-5.892.346c-6.008,4.381.115,20.523,7.394,18.794S297.626,58.8,297.626,58.8Z" fill="#ffb39f"/>
    <path id="Caminho_66" data-name="Caminho 66" d="M290.925,25.6c.462-.115,9.474-.807,3.466-.231,5.545,6,4.968,7.494,12.593,8.878,4.043,12.452-3.928,19.947-3.928,19.947l2.2,14.989-5.777.576s.116-10.377-4.274-11.3-5.661,4.381-5.661,4.381C280.412,51.308,271.169,28.709,290.925,25.6Z"/>
    <path id="Caminho_67" data-name="Caminho 67" d="M343.26,17.18C346.957,8.071,340.719,0,340.719,0a13.121,13.121,0,0,1-.463,8.993A21.165,21.165,0,0,0,335.982.922s.693,9.224-11.9,8.071S289.423,9.57,288.5,29.055c-1.04,19.485,17.792,5.3,17.792,5.3s37.547,10.492,42.977-19.716Z"/>
    <path id="Caminho_68" data-name="Caminho 68" d="M325.469,50.848a3.7,3.7,0,0,1-.809-.115q-.867-.173-2.079-.346a4.753,4.753,0,0,0-1.271-.115,5.637,5.637,0,0,0-1.387-.115h-2.2l-.693.115a7.972,7.972,0,0,0-1.5.231l-1.386.346c-.462.115-.924.346-1.386.461s-.809.346-1.271.461a2.855,2.855,0,0,0-1.04.461,5.621,5.621,0,0,0-.809.346,6.892,6.892,0,0,1-.808.346,6.785,6.785,0,0,1,.346-.807,6.858,6.858,0,0,1,.462-.922,6.315,6.315,0,0,1,.809-1.038A9.415,9.415,0,0,1,311.49,49a16.836,16.836,0,0,1,1.5-1.038c.577-.231,1.155-.576,1.733-.807a12.081,12.081,0,0,1,1.964-.461l1.039-.115a3.2,3.2,0,0,1,1.04.115c.347,0,.693.115.924.115.347.115.578.115.925.231a6.842,6.842,0,0,1,1.617.692c.462.231.924.576,1.386.807.347.231.694.576,1.04.807.231.231.462.576.693.692A1.079,1.079,0,0,0,325.469,50.848Z"/>
    <path id="Caminho_69" data-name="Caminho 69" d="M344.993,50.27a3.729,3.729,0,0,0-.693-.231,14.071,14.071,0,0,1-1.618-.576l-1.039-.346a3.387,3.387,0,0,0-1.04-.231,3.38,3.38,0,0,1-1.04-.231.7.7,0,0,1-.462-.115h-.462c-.347-.115-.693.115-1.04,0-.347.115-.693.115-1.04.231l-1.039.346a2258.019,2258.019,0,0,0-1.849.692,1.643,1.643,0,0,1-.693.231,3.728,3.728,0,0,0-.693.231,1.783,1.783,0,0,1,.231-.692,4.141,4.141,0,0,1,.346-.807,4.065,4.065,0,0,1,.578-.922,6.315,6.315,0,0,1,.809-1.038c.346-.346.808-.576,1.155-.922.462-.231,1.04-.461,1.5-.692a8.935,8.935,0,0,1,1.733-.231h.924a1.672,1.672,0,0,1,.809.231,2.142,2.142,0,0,1,.808.231l.694.346a6.594,6.594,0,0,1,2.079,1.845,13.314,13.314,0,0,1,.924,1.729A6.822,6.822,0,0,1,344.993,50.27Z"/>
    <path id="Caminho_70" data-name="Caminho 70" d="M330.783,51.538c.693,1.5,1.387,3.113,2.08,4.612.346.807.577,1.5.924,2.306l.924,2.306.924,2.306c.347.807.578,1.5.925,2.306l.462,1.153c.115.346.346.807.462,1.153.347.692.693,1.384,1.04,2.191l.346.922-.693.346c-1.04.461-2.079,1.038-3.235,1.5a28.744,28.744,0,0,1-3.35,1.268c.924-.807,1.848-1.5,2.773-2.191s1.964-1.384,2.888-2.075l-.347,1.268c-.462-.692-.924-1.5-1.386-2.191a14.3,14.3,0,0,1-1.155-2.306l-.578-1.153-.462-1.153c-.231-.807-.578-1.614-.809-2.421l-.693-2.421c-.231-.807-.347-1.614-.578-2.421C331.13,55,330.9,53.268,330.783,51.538Z" fill="#dd9078"/>
    <path id="Caminho_71" data-name="Caminho 71" d="M297.279,74.6a3.6,3.6,0,0,1-1.27-1.038,4.352,4.352,0,0,1-1.04-1.383,2.162,2.162,0,0,1-.231-.922v-.461c0-.115.115-.346.115-.461a2.074,2.074,0,0,1,.578-.807l.346-.346.347-.231-.231.346c0-1.268,0-2.537-.116-3.69a11.551,11.551,0,0,0-.693-3.574,1.149,1.149,0,0,0-.462-.576.881.881,0,0,0-.577-.231.425.425,0,0,0-.347.115c-.116,0-.347.115-.462.115a2.417,2.417,0,0,0-.693.461c-.231.231-.463.346-.578.576a4.939,4.939,0,0,0-.462.807,4.773,4.773,0,0,0-.347,1.845,3.7,3.7,0,0,1-.115-1.96,1.308,1.308,0,0,1,.346-.922,2.074,2.074,0,0,1,.578-.807l.347-.346.462-.346c.115-.115.346-.115.462-.231s.346-.115.577-.231a1.3,1.3,0,0,1,1.271.346,1.788,1.788,0,0,1,.693.922,13.2,13.2,0,0,1,.694,1.96,11.39,11.39,0,0,1,.231,1.96,22.307,22.307,0,0,1,0,3.92v.231l-.231.115a1.156,1.156,0,0,0-.578.461l-.462.461a.422.422,0,0,0-.116.346c0,.115-.115.231-.115.346v.692a3.877,3.877,0,0,0,.693,1.384A7.992,7.992,0,0,1,297.279,74.6Z" fill="#dd9078"/>
    <path id="Caminho_72" data-name="Caminho 72" d="M315.417,61.8a3.7,3.7,0,0,1,.232.692c.115.231.115.461.231.692a6.732,6.732,0,0,0,.462.922c.115.346.462.576.577.922l.462.461a1.608,1.608,0,0,0,.463.346,4.1,4.1,0,0,0,1.039.461c.231,0,.347.115.578.115a1.044,1.044,0,0,0,.578-.115l.577-.231.578-.346A3.1,3.1,0,0,0,322,64.8c.231-.346.346-.692.577-1.038a3.393,3.393,0,0,0,.231-1.153,2.234,2.234,0,0,1,.116-.922v-1.5a3.761,3.761,0,0,1,.231.692,7.127,7.127,0,0,1,.231.807c0,.346.116.692.116,1.038a5.14,5.14,0,0,1-.116,1.268,6.466,6.466,0,0,1-.462,1.384,3.607,3.607,0,0,1-1.04,1.268l-.693.461c-.231.115-.578.231-.809.346-.231,0-.577.115-.924.115-.231,0-.578-.115-.809-.115a3.818,3.818,0,0,1-1.5-.807,4.049,4.049,0,0,1-.924-1.153,10.553,10.553,0,0,1-.577-1.153,3.349,3.349,0,0,1-.232-1.038V61.8Z"/>
    <path id="Caminho_73" data-name="Caminho 73" d="M336.329,58.341a3.761,3.761,0,0,1,.231.692c.115.231.115.461.231.692a6.739,6.739,0,0,0,.462.922c.115.346.462.576.578.922l.462.461a1.587,1.587,0,0,0,.462.346,4.094,4.094,0,0,0,1.04.461c.231,0,.346.115.577.115a1.045,1.045,0,0,0,.578-.115l.577-.231.578-.346a3.1,3.1,0,0,0,.809-.922c.231-.346.346-.692.577-1.038a3.393,3.393,0,0,0,.232-1.153,2.253,2.253,0,0,1,.115-.922v-1.5a3.663,3.663,0,0,1,.231.692,7.122,7.122,0,0,1,.231.807c0,.346.116.692.116,1.038a5.14,5.14,0,0,1-.116,1.268,6.465,6.465,0,0,1-.462,1.384,3.607,3.607,0,0,1-1.04,1.268l-.693.461c-.231.115-.578.231-.809.346-.231,0-.577.115-.924.115-.231,0-.577-.115-.809-.115a3.805,3.805,0,0,1-1.5-.807,4.038,4.038,0,0,1-.925-1.153,10.552,10.552,0,0,1-.577-1.153,3.347,3.347,0,0,1-.231-1.038v-1.5Z"/>
    <path id="Caminho_74" data-name="Caminho 74" d="M317.237,78.1s-.116,0,0,.115a2.5,2.5,0,0,0,.578.346,17.761,17.761,0,0,0,2.2,1.153,20.981,20.981,0,0,0,3.234,1.268,10.84,10.84,0,0,0,1.849.461c.578.115,1.271.231,1.964.346a21.08,21.08,0,0,0,3.812.115,14.348,14.348,0,0,0,3.351-.692c.924-.346,1.733-.576,2.31-.807s.925-.346.925-.346a3.18,3.18,0,0,1-.694.692,11.863,11.863,0,0,1-2.079,1.614,10.1,10.1,0,0,1-3.582,1.384,13.888,13.888,0,0,1-4.39.231,14.881,14.881,0,0,1-2.195-.461,10.018,10.018,0,0,1-1.964-.807,13.176,13.176,0,0,1-3.119-1.96,9.348,9.348,0,0,1-1.849-1.96,1,1,0,0,1-.346-.692C317.121,78.1,317.121,78.219,317.237,78.1Z" fill="#dd9078"/>
    <path id="Caminho_75" data-name="Caminho 75" d="M335.289,105.613s29.576-3.113,33.388,19.486c3.813,22.714,3.466,28.824,3.466,28.824l-28.882-4.266Z" fill="#509beb"/>
    <path id="Caminho_76" data-name="Caminho 76" d="M360.242,123.83c-1.733-14.413-16.4-17.526-24.954-18.218-3.813,5.3-9.127,9.109-16.4,9.34-8.319.23-15.944-2.652-19.987-8.994-12.939,1.5-25.763,5.189-28.652,13.951-6.123,18.448-.808,119.911-.808,119.911s51.757,8.878,94.272.807C363.593,240.742,362.553,143.084,360.242,123.83Z" fill="#509beb"/>
    <path id="Caminho_77" data-name="Caminho 77" d="M267.242,169.258c.231,33.437,2.2,70.678,2.2,70.678s51.757,8.878,94.272.807c0,0-.809-74.137-2.542-105.959Q314.205,152.252,267.242,169.258Z" fill="#352c38" opacity="0.06"/>
    <path id="Caminho_78" data-name="Caminho 78" d="M299.127,196.007s-1.155-3.343,4.159-5.534,60.076-16.488,63.542-16.026,45.865,5.534,46.558,7.84S362.668,201.2,362.668,201.2Z" fill="#e1edff"/>
    <path id="Caminho_79" data-name="Caminho 79" d="M365.557,205.577s-59.96-.23-64.581-5.649-4.737-9.34,21.489-4.728,41.359,3.92,41.359,3.92,48.061-22.367,49.678-16.948C415,187.706,420.087,186.322,365.557,205.577Z" fill="#c0d5ff"/>
    <path id="Caminho_80" data-name="Caminho 80" d="M413.387,182.287c-1.5-5.419-49.678,16.949-49.678,16.949h-.462c1.039,2.075,1.848,4.035,2.772,6.226C420.087,186.322,415,187.706,413.387,182.287Z" fill="#b1c5e8"/>
    <path id="Caminho_81" data-name="Caminho 81" d="M297.394,183.67s-1.156-3.343,4.159-5.534,60.075-16.488,63.541-16.026,45.865,5.534,46.559,7.84-50.718,18.909-50.718,18.909Z" fill="#e1edff"/>
    <path id="Caminho_82" data-name="Caminho 82" d="M363.824,193.356s-59.96-.231-64.581-5.65-4.737-9.339,21.488-4.727,41.36,3.92,41.36,3.92,48.06-22.368,49.678-16.949C413.155,175.369,418.354,173.985,363.824,193.356Z" fill="#c0d5ff"/>
    <path id="Caminho_83" data-name="Caminho 83" d="M411.654,170.065c-1.5-5.419-49.678,16.949-49.678,16.949h-.462c1.039,2.076,1.848,4.036,2.772,6.226C418.239,173.985,413.155,175.369,411.654,170.065Z" fill="#b1c5e8"/>
    <path id="Caminho_84" data-name="Caminho 84" d="M297.163,173.639s-1.04-2.882,4.043-4.842,58.112-14.528,61.462-14.067,44.364,4.958,45.057,6.918-49.1,16.719-49.1,16.719Z" fill="#e1edff"/>
    <path id="Caminho_85" data-name="Caminho 85" d="M361.4,182.172s-58-.231-62.5-4.958-4.506-8.187,20.795-4.151,39.973,3.459,39.973,3.459,46.559-19.716,48.061-14.874C409.228,166.376,414.2,165.107,361.4,182.172Z" fill="#c0d5ff"/>
    <path id="Caminho_86" data-name="Caminho 86" d="M407.726,161.648c-1.5-4.727-48.061,14.874-48.061,14.874H359.2c.924,1.729,1.849,3.574,2.657,5.419C414.2,165.107,409.228,166.376,407.726,161.648Z" fill="#b1c5e8"/>
    <path id="Caminho_87" data-name="Caminho 87" d="M298.78,160.15s-.924-2.883,4.275-4.728c5.2-1.729,58.574-12.337,61.924-11.76,3.35.461,44.132,6.572,44.71,8.532s-49.678,14.758-49.678,14.758Z" fill="#fff"/>
    <path id="Caminho_88" data-name="Caminho 88" d="M362.669,171.1s-58-2.421-62.27-7.264c-4.275-4.958-4.275-8.3,20.91-3.344s39.858,4.958,39.858,4.958,47.252-17.871,48.523-13.144C411.076,157.035,416.044,156,362.669,171.1Z" fill="#c0d5ff"/>
    <path id="Caminho_89" data-name="Caminho 89" d="M409.69,152.309c-1.271-4.842-48.523,13.144-48.523,13.144H360.7a57.576,57.576,0,0,1,2.426,5.535C415.928,156,410.961,157.036,409.69,152.309Z" fill="#b1c5e8"/>
    <path id="Caminho_90" data-name="Caminho 90" d="M268.628,162.34l28.536-6.918s6.123,41.508,7.74,43.814,49.332,4.612,49.332,4.612l13.863.807s-58.574,24.558-75.441,14.643C275.56,209.151,268.628,162.34,268.628,162.34Z" fill="#ffb39f"/>
    <path id="Caminho_91" data-name="Caminho 91" d="M271.4,167.3c8.78-2.652,17.329-5.88,26.34-7.84-.346-2.537-.577-4.036-.577-4.036l-28.536,6.918s.347,2.076.924,5.535A16.313,16.313,0,0,1,271.4,167.3Z" fill="#e09b8d"/>
    <path id="Caminho_92" data-name="Caminho 92" d="M362.785,208.46S384.5,202.7,384.5,198.313s-7.856-20.177-2.31.923c0,0-11.553-28.594-2.311,1.383,0,0-9.011-23.29-2.888.577,0,0-9.243-16.142-2.542,1.153l-8.318,3.113-19.987-.231L335.52,215.608Z" fill="#ffb39f"/>
    <path id="Caminho_93" data-name="Caminho 93" d="M413.618,187.36s-11.553-28.594-2.311,1.384c0,0-9.011-23.291-2.888.576,0,0-9.243-16.142-3.351,1.268l-6.354,3a19.853,19.853,0,0,0,7.741-.692c7.394-1.5,9.473-4.035,9.473-6.341C415.928,182.172,408.072,166.376,413.618,187.36Z" fill="#ffb39f"/>
    <path id="Caminho_94" data-name="Caminho 94" d="M443.078,490.825a7.626,7.626,0,0,1-15.25.231l-.347-24.443a7.626,7.626,0,0,1,15.25-.231Z"/>
    <path id="Caminho_95" data-name="Caminho 95" d="M336.675,492.1a7.626,7.626,0,0,1-15.25.23l-.346-24.443a7.626,7.626,0,0,1,15.25-.231Z"/>
    <path id="Caminho_96" data-name="Caminho 96" d="M434.529,473.415a17.14,17.14,0,0,1-16.983,17.295l-71.166.807a17.141,17.141,0,0,1-17.329-16.949L321.426,312.92a17.141,17.141,0,0,1,16.982-17.3l76.738-.963,5.866-.074a17.142,17.142,0,0,1,17.33,16.948Z" fill="#b1c5e8"/>
    <path id="Caminho_97" data-name="Caminho 97" d="M437.879,327.793l.347-16.026A17.143,17.143,0,0,0,420.9,294.818l-82.6,1.038a17.14,17.14,0,0,0-16.983,17.3l.809,16.026Z" fill="#98add2"/>
    <path id="Caminho_98" data-name="Caminho 98" d="M451.974,307.732a4.852,4.852,0,0,1-4.737,4.842L312.3,314.188a4.853,4.853,0,0,1-4.853-4.727l-.231-17.064a4.854,4.854,0,0,1,4.737-4.843l134.939-1.614a4.853,4.853,0,0,1,4.852,4.727Z" fill="#b1c5e8"/>
    <path id="Caminho_99" data-name="Caminho 99" d="M380.346,355.119l15.712-9.454-3.813,9.8Z" fill="#fff"/>
    <path id="Caminho_100" data-name="Caminho 100" d="M374.454,340.246s1.27,0,3.234,3,6.355,11.069,6.355,11.069l7.971-3.574,1.849-3.113s-3.466-6.918-6.239-7.379Z" fill="#fff"/>
    <path id="Caminho_101" data-name="Caminho 101" d="M370.064,342.321s2.426-2.652,4.39-1.268,5.43,7.149,5.43,7.149l-5.661,9.915-10.167-5.649Z" fill="#fff"/>
    <path id="Caminho_102" data-name="Caminho 102" d="M387.509,367.456l.808,18.217-6.816-7.955Z" fill="#fff"/>
    <path id="Caminho_103" data-name="Caminho 103" d="M403.451,369.3s-.577,1.153-4.159,1.5-12.823.346-12.823.346l-.694,8.762,1.849,3.114s7.74.345,9.473-1.961Z" fill="#fff"/>
    <path id="Caminho_104" data-name="Caminho 104" d="M403.567,364.458s1.271,3.344-.924,4.5c-2.08,1.038-8.9,1.268-8.9,1.268l-6.123-9.685,9.82-6.341Z" fill="#fff"/>
    <path id="Caminho_105" data-name="Caminho 105" d="M373.76,367.226l-16.175-8.532,10.283-1.845Z" fill="#fff"/>
    <path id="Caminho_106" data-name="Caminho 106" d="M364.056,380.024s-.693-1.038.809-4.266,6.123-11.184,6.123-11.184l-7.163-4.958-3.581.115s-4.159,6.572-3.12,9.109Z" fill="#fff"/>
    <path id="Caminho_107" data-name="Caminho 107" d="M368.215,382.56s-3.581-.692-3.35-3c.115-2.421,3.35-8.3,3.35-8.3l11.438-.346.462,11.645Z" fill="#fff"/>
  </g>
</svg>
